<svg xmlns="http://www.w3.org/2000/svg" viewBox="0 0 620 320" width="100%" preserveAspectRatio="xMidYMid meet" font-family="Times New Roman, Georgia, serif">
  <text x="70" y="25" font-size="14" font-weight="bold">GC chromatogram &#183; optimised method (run 13)</text>
  <text x="70" y="40" font-size="10.5" fill="#666">TCE + decane in diethyl ether &#183; 30 &#8594; 250 &#176;C at 25 &#176;C/min &#183; 2 min hold &#183; dashed orange = oven temperature ramp</text>
  <rect x="70" y="45" width="480" height="205" fill="#fff"/>
  <g stroke="#eee" stroke-width="0.5">
    <line x1="70" y1="215.8" x2="550" y2="215.8"/>
    <line x1="70" y1="181.7" x2="550" y2="181.7"/>
    <line x1="70" y1="147.5" x2="550" y2="147.5"/>
    <line x1="70" y1="113.3" x2="550" y2="113.3"/>
    <line x1="70" y1="79.2" x2="550" y2="79.2"/>
    <line x1="70" y1="45.0" x2="550" y2="45.0"/>
  </g>
  <g stroke="#000" stroke-width="0.9" fill="none">
    <line x1="70" y1="250" x2="550" y2="250"/>
    <line x1="70" y1="45" x2="70" y2="250"/>
    <line x1="550" y1="45" x2="550" y2="250"/>
  </g>
  <g stroke="#000" stroke-width="0.9" font-size="11" fill="#000" text-anchor="middle">
    <line x1="70.0" y1="250" x2="70.0" y2="255.0"/>
    <text x="70.0" y="268.0" stroke="none">0</text>
    <line x1="138.6" y1="250" x2="138.6" y2="255.0"/>
    <text x="138.6" y="268.0" stroke="none">1</text>
    <line x1="207.1" y1="250" x2="207.1" y2="255.0"/>
    <text x="207.1" y="268.0" stroke="none">2</text>
    <line x1="275.7" y1="250" x2="275.7" y2="255.0"/>
    <text x="275.7" y="268.0" stroke="none">3</text>
    <line x1="344.3" y1="250" x2="344.3" y2="255.0"/>
    <text x="344.3" y="268.0" stroke="none">4</text>
    <line x1="412.9" y1="250" x2="412.9" y2="255.0"/>
    <text x="412.9" y="268.0" stroke="none">5</text>
    <line x1="481.4" y1="250" x2="481.4" y2="255.0"/>
    <text x="481.4" y="268.0" stroke="none">6</text>
    <line x1="550.0" y1="250" x2="550.0" y2="255.0"/>
    <text x="550.0" y="268.0" stroke="none">7</text>
    <text x="310.0" y="288" stroke="none" font-size="12">Time (min)</text>
  </g>
  <g stroke="#000" stroke-width="0.9" font-size="11" fill="#000" text-anchor="end">
    <line x1="65.0" y1="250.0" x2="70" y2="250.0"/>
    <text x="62" y="254.0" stroke="none">0</text>
    <line x1="65.0" y1="198.8" x2="70" y2="198.8"/>
    <text x="62" y="202.8" stroke="none">25</text>
    <line x1="65.0" y1="147.5" x2="70" y2="147.5"/>
    <text x="62" y="151.5" stroke="none">50</text>
    <line x1="65.0" y1="96.2" x2="70" y2="96.2"/>
    <text x="62" y="100.2" stroke="none">75</text>
    <line x1="65.0" y1="45.0" x2="70" y2="45.0"/>
    <text x="62" y="49.0" stroke="none">100</text>
    <text x="22" y="147.5" stroke="none" font-size="12" transform="rotate(-90, 22, 147.5)" text-anchor="middle">Detector signal (a.u.)</text>
  </g>
  <g stroke="#d4884c" stroke-width="0.9" font-size="11" fill="#b06c34" text-anchor="start">
    <line x1="550" y1="229.5" x2="555.0" y2="229.5"/>
    <text x="558" y="233.5" stroke="none">30</text>
    <line x1="550" y1="181.7" x2="555.0" y2="181.7"/>
    <text x="558" y="185.7" stroke="none">100</text>
    <line x1="550" y1="113.3" x2="555.0" y2="113.3"/>
    <text x="558" y="117.3" stroke="none">200</text>
    <line x1="550" y1="45.0" x2="555.0" y2="45.0"/>
    <text x="558" y="49.0" stroke="none">300</text>
    <text x="598" y="147.5" stroke="none" font-size="12" transform="rotate(90, 598, 147.5)" text-anchor="middle">Oven T (&#176;C)</text>
  </g>
  <path d="M 70.0 229.5 L 207.1 229.5 L 550.0 144.1" stroke="#d4884c" stroke-width="1.4" stroke-dasharray="5 3" fill="none"/>
  <path d="M 70.0 247.5 L 70.7 247.5 L 71.4 247.5 L 72.1 247.4 L 72.7 247.4 L 73.4 247.3 L 74.1 247.3 L 74.8 247.2 L 75.5 247.2 L 76.2 247.2 L 76.9 247.1 L 77.5 247.1 L 78.2 247.0 L 78.9 247.0 L 79.6 247.0 L 80.3 246.9 L 81.0 246.9 L 81.7 246.8 L 82.3 246.8 L 83.0 246.8 L 83.7 246.7 L 84.4 246.7 L 85.1 246.7 L 85.8 246.7 L 86.5 246.6 L 87.1 246.6 L 87.8 246.6 L 88.5 246.5 L 89.2 246.5 L 89.9 246.5 L 90.6 246.5 L 91.3 246.5 L 91.9 246.4 L 92.6 246.4 L 93.3 246.4 L 94.0 246.4 L 94.7 246.4 L 95.4 246.3 L 96.1 246.3 L 96.7 246.3 L 97.4 246.3 L 98.1 246.3 L 98.8 246.3 L 99.5 246.3 L 100.2 246.3 L 100.9 246.3 L 101.5 246.3 L 102.2 246.3 L 102.9 246.3 L 103.6 246.3 L 104.3 246.3 L 105.0 246.3 L 105.7 246.3 L 106.3 246.3 L 107.0 246.3 L 107.7 246.3 L 108.4 246.3 L 109.1 246.3 L 109.8 246.3 L 110.5 246.3 L 111.1 246.4 L 111.8 246.4 L 112.5 246.4 L 113.2 246.4 L 113.9 246.4 L 114.6 246.4 L 115.3 246.5 L 115.9 246.5 L 116.6 246.5 L 117.3 246.5 L 118.0 246.5 L 118.7 246.6 L 119.4 246.6 L 120.1 246.6 L 120.7 246.6 L 121.4 246.7 L 122.1 246.7 L 122.8 246.7 L 123.5 246.8 L 124.2 246.8 L 124.9 246.8 L 125.5 246.8 L 126.2 246.9 L 126.9 246.9 L 127.6 246.9 L 128.3 247.0 L 129.0 247.0 L 129.7 247.0 L 130.3 247.1 L 131.0 247.1 L 131.7 247.1 L 132.4 247.2 L 133.1 247.2 L 133.8 247.2 L 134.5 247.3 L 135.1 247.3 L 135.8 247.4 L 136.5 247.4 L 137.2 247.4 L 137.9 247.5 L 138.6 247.5 L 139.3 247.5 L 139.9 247.6 L 140.6 247.6 L 141.3 247.6 L 142.0 247.7 L 142.7 247.7 L 143.4 247.7 L 144.1 247.8 L 144.7 247.8 L 145.4 247.8 L 146.1 247.9 L 146.8 247.9 L 147.5 247.9 L 148.2 248.0 L 148.9 248.0 L 149.5 248.0 L 150.2 248.0 L 150.9 248.1 L 151.6 248.1 L 152.3 248.1 L 153.0 248.1 L 153.7 248.2 L 154.3 248.2 L 155.0 248.2 L 155.7 248.2 L 156.4 248.3 L 157.1 248.3 L 157.8 248.3 L 158.5 248.3 L 159.1 248.3 L 159.8 248.3 L 160.5 248.3 L 161.2 248.3 L 161.9 248.3 L 162.6 248.2 L 163.3 248.2 L 163.9 248.1 L 164.6 248.0 L 165.3 247.9 L 166.0 247.8 L 166.7 247.6 L 167.4 247.4 L 168.1 247.1 L 168.7 246.7 L 169.4 246.3 L 170.1 245.8 L 170.8 245.3 L 171.5 244.6 L 172.2 243.7 L 172.9 242.8 L 173.5 241.7 L 174.2 240.5 L 174.9 239.0 L 175.6 237.4 L 176.3 235.6 L 177.0 233.6 L 177.7 231.4 L 178.3 228.9 L 179.0 226.2 L 179.7 223.4 L 180.4 220.3 L 181.1 217.0 L 181.8 213.6 L 182.5 210.0 L 183.1 206.3 L 183.8 202.5 L 184.5 198.6 L 185.2 194.8 L 185.9 191.0 L 186.6 187.3 L 187.3 183.8 L 187.9 180.4 L 188.6 177.3 L 189.3 174.5 L 190.0 172.1 L 190.7 170.0 L 191.4 168.4 L 192.1 167.1 L 192.7 166.4 L 193.4 166.1 L 194.1 166.4 L 194.8 167.0 L 195.5 168.2 L 196.2 169.8 L 196.9 171.9 L 197.5 174.3 L 198.2 177.0 L 198.9 180.1 L 199.6 183.4 L 200.3 186.9 L 201.0 190.5 L 201.7 194.3 L 202.3 198.1 L 203.0 201.9 L 203.7 205.6 L 204.4 209.3 L 205.1 212.8 L 205.8 216.2 L 206.5 219.5 L 207.1 222.5 L 207.8 225.3 L 208.5 228.0 L 209.2 230.4 L 209.9 232.6 L 210.6 234.6 L 211.3 236.4 L 211.9 237.9 L 212.6 239.3 L 213.3 240.6 L 214.0 241.6 L 214.7 242.5 L 215.4 243.3 L 216.1 244.0 L 216.7 244.6 L 217.4 245.0 L 218.1 245.4 L 218.8 245.8 L 219.5 246.0 L 220.2 246.2 L 220.9 246.4 L 221.5 246.5 L 222.2 246.6 L 222.9 246.7 L 223.6 246.8 L 224.3 246.8 L 225.0 246.8 L 225.7 246.9 L 226.3 246.9 L 227.0 246.9 L 227.7 246.9 L 228.4 246.9 L 229.1 246.9 L 229.8 246.9 L 230.5 246.9 L 231.1 246.9 L 231.8 246.8 L 232.5 246.8 L 233.2 246.8 L 233.9 246.8 L 234.6 246.8 L 235.3 246.8 L 235.9 246.8 L 236.6 246.8 L 237.3 246.8 L 238.0 246.8 L 238.7 246.8 L 239.4 246.8 L 240.1 246.8 L 240.7 246.8 L 241.4 246.8 L 242.1 246.8 L 242.8 246.8 L 243.5 246.8 L 244.2 246.8 L 244.9 246.8 L 245.5 246.8 L 246.2 246.8 L 246.9 246.8 L 247.6 246.8 L 248.3 246.8 L 249.0 246.8 L 249.7 246.8 L 250.3 246.8 L 251.0 246.8 L 251.7 246.8 L 252.4 246.9 L 253.1 246.9 L 253.8 246.9 L 254.5 246.9 L 255.1 246.9 L 255.8 246.9 L 256.5 246.9 L 257.2 246.9 L 257.9 247.0 L 258.6 247.0 L 259.3 247.0 L 259.9 247.0 L 260.6 247.0 L 261.3 247.0 L 262.0 247.1 L 262.7 247.1 L 263.4 247.1 L 264.1 247.1 L 264.7 247.1 L 265.4 247.1 L 266.1 247.2 L 266.8 247.2 L 267.5 247.2 L 268.2 247.2 L 268.9 247.2 L 269.5 247.3 L 270.2 247.3 L 270.9 247.3 L 271.6 247.3 L 272.3 247.4 L 273.0 247.4 L 273.7 247.4 L 274.3 247.4 L 275.0 247.4 L 275.7 247.5 L 276.4 247.5 L 277.1 247.5 L 277.8 247.5 L 278.5 247.5 L 279.1 247.6 L 279.8 247.6 L 280.5 247.6 L 281.2 247.6 L 281.9 247.6 L 282.6 247.7 L 283.3 247.7 L 283.9 247.7 L 284.6 247.7 L 285.3 247.7 L 286.0 247.8 L 286.7 247.8 L 287.4 247.8 L 288.1 247.8 L 288.7 247.8 L 289.4 247.8 L 290.1 247.9 L 290.8 247.9 L 291.5 247.9 L 292.2 247.9 L 292.9 247.9 L 293.5 247.9 L 294.2 248.0 L 294.9 248.0 L 295.6 248.0 L 296.3 248.0 L 297.0 248.0 L 297.7 248.0 L 298.3 248.0 L 299.0 248.0 L 299.7 248.0 L 300.4 248.1 L 301.1 248.1 L 301.8 248.1 L 302.5 248.1 L 303.1 248.1 L 303.8 248.1 L 304.5 248.1 L 305.2 248.1 L 305.9 248.1 L 306.6 248.1 L 307.3 248.1 L 307.9 248.1 L 308.6 248.1 L 309.3 248.1 L 310.0 248.1 L 310.7 248.1 L 311.4 248.1 L 312.1 248.1 L 312.7 248.1 L 313.4 248.1 L 314.1 248.1 L 314.8 248.1 L 315.5 248.1 L 316.2 248.1 L 316.9 248.1 L 317.5 248.1 L 318.2 248.1 L 318.9 248.1 L 319.6 248.1 L 320.3 248.1 L 321.0 248.1 L 321.7 248.1 L 322.3 248.1 L 323.0 248.1 L 323.7 248.0 L 324.4 248.0 L 325.1 248.0 L 325.8 248.0 L 326.5 248.0 L 327.1 248.0 L 327.8 248.0 L 328.5 248.0 L 329.2 248.0 L 329.9 247.9 L 330.6 247.9 L 331.3 247.9 L 331.9 247.9 L 332.6 247.9 L 333.3 247.9 L 334.0 247.9 L 334.7 247.8 L 335.4 247.8 L 336.1 247.8 L 336.7 247.8 L 337.4 247.8 L 338.1 247.8 L 338.8 247.8 L 339.5 247.7 L 340.2 247.7 L 340.9 247.7 L 341.5 247.7 L 342.2 247.7 L 342.9 247.7 L 343.6 247.6 L 344.3 247.6 L 345.0 247.6 L 345.7 247.6 L 346.3 247.6 L 347.0 247.6 L 347.7 247.5 L 348.4 247.5 L 349.1 247.5 L 349.8 247.5 L 350.5 247.5 L 351.1 247.5 L 351.8 247.5 L 352.5 247.4 L 353.2 247.4 L 353.9 247.4 L 354.6 247.4 L 355.3 247.4 L 355.9 247.4 L 356.6 247.3 L 357.3 247.3 L 358.0 247.3 L 358.7 247.3 L 359.4 247.3 L 360.1 247.3 L 360.7 247.3 L 361.4 247.2 L 362.1 247.2 L 362.8 247.2 L 363.5 247.2 L 364.2 247.2 L 364.9 247.2 L 365.5 247.2 L 366.2 247.1 L 366.9 247.1 L 367.6 247.1 L 368.3 247.1 L 369.0 247.1 L 369.7 247.0 L 370.3 247.0 L 371.0 247.0 L 371.7 246.9 L 372.4 246.9 L 373.1 246.9 L 373.8 246.8 L 374.5 246.7 L 375.1 246.7 L 375.8 246.6 L 376.5 246.5 L 377.2 246.3 L 377.9 246.2 L 378.6 246.0 L 379.3 245.9 L 379.9 245.6 L 380.6 245.4 L 381.3 245.1 L 382.0 244.8 L 382.7 244.4 L 383.4 244.0 L 384.1 243.5 L 384.7 243.0 L 385.4 242.3 L 386.1 241.6 L 386.8 240.9 L 387.5 240.0 L 388.2 239.0 L 388.9 237.9 L 389.5 236.7 L 390.2 235.4 L 390.9 233.9 L 391.6 232.3 L 392.3 230.6 L 393.0 228.7 L 393.7 226.6 L 394.3 224.4 L 395.0 222.0 L 395.7 219.4 L 396.4 216.6 L 397.1 213.6 L 397.8 210.5 L 398.5 207.1 L 399.1 203.6 L 399.8 199.9 L 400.5 196.0 L 401.2 192.0 L 401.9 187.8 L 402.6 183.4 L 403.3 179.0 L 403.9 174.4 L 404.6 169.7 L 405.3 165.0 L 406.0 160.2 L 406.7 155.3 L 407.4 150.5 L 408.1 145.7 L 408.7 141.0 L 409.4 136.3 L 410.1 131.8 L 410.8 127.4 L 411.5 123.2 L 412.2 119.1 L 412.9 115.4 L 413.5 111.9 L 414.2 108.6 L 414.9 105.7 L 415.6 103.2 L 416.3 101.0 L 417.0 99.2 L 417.7 97.7 L 418.3 96.7 L 419.0 96.1 L 419.7 95.9 L 420.4 96.1 L 421.1 96.7 L 421.8 97.8 L 422.5 99.3 L 423.1 101.1 L 423.8 103.3 L 424.5 105.9 L 425.2 108.8 L 425.9 112.1 L 426.6 115.6 L 427.3 119.4 L 427.9 123.4 L 428.6 127.7 L 429.3 132.1 L 430.0 136.7 L 430.7 141.3 L 431.4 146.1 L 432.1 150.9 L 432.7 155.8 L 433.4 160.6 L 434.1 165.4 L 434.8 170.2 L 435.5 174.9 L 436.2 179.5 L 436.9 184.0 L 437.5 188.4 L 438.2 192.6 L 438.9 196.6 L 439.6 200.5 L 440.3 204.2 L 441.0 207.8 L 441.7 211.1 L 442.3 214.3 L 443.0 217.3 L 443.7 220.1 L 444.4 222.7 L 445.1 225.1 L 445.8 227.4 L 446.5 229.4 L 447.1 231.4 L 447.8 233.1 L 448.5 234.7 L 449.2 236.2 L 449.9 237.5 L 450.6 238.7 L 451.3 239.8 L 451.9 240.8 L 452.6 241.7 L 453.3 242.4 L 454.0 243.1 L 454.7 243.8 L 455.4 244.3 L 456.1 244.8 L 456.7 245.2 L 457.4 245.6 L 458.1 245.9 L 458.8 246.2 L 459.5 246.4 L 460.2 246.6 L 460.9 246.8 L 461.5 247.0 L 462.2 247.1 L 462.9 247.2 L 463.6 247.3 L 464.3 247.4 L 465.0 247.5 L 465.7 247.5 L 466.3 247.6 L 467.0 247.6 L 467.7 247.6 L 468.4 247.6 L 469.1 247.7 L 469.8 247.7 L 470.5 247.7 L 471.1 247.7 L 471.8 247.7 L 472.5 247.7 L 473.2 247.7 L 473.9 247.7 L 474.6 247.7 L 475.3 247.7 L 475.9 247.7 L 476.6 247.7 L 477.3 247.7 L 478.0 247.7 L 478.7 247.7 L 479.4 247.6 L 480.1 247.6 L 480.7 247.6 L 481.4 247.6 L 482.1 247.6 L 482.8 247.6 L 483.5 247.6 L 484.2 247.6 L 484.9 247.6 L 485.5 247.6 L 486.2 247.5 L 486.9 247.5 L 487.6 247.5 L 488.3 247.5 L 489.0 247.5 L 489.7 247.5 L 490.3 247.5 L 491.0 247.5 L 491.7 247.5 L 492.4 247.5 L 493.1 247.5 L 493.8 247.4 L 494.5 247.4 L 495.1 247.4 L 495.8 247.4 L 496.5 247.4 L 497.2 247.4 L 497.9 247.4 L 498.6 247.4 L 499.3 247.4 L 499.9 247.4 L 500.6 247.4 L 501.3 247.4 L 502.0 247.4 L 502.7 247.3 L 503.4 247.3 L 504.1 247.3 L 504.7 247.3 L 505.4 247.3 L 506.1 247.3 L 506.8 247.3 L 507.5 247.3 L 508.2 247.3 L 508.9 247.3 L 509.5 247.3 L 510.2 247.3 L 510.9 247.3 L 511.6 247.3 L 512.3 247.3 L 513.0 247.3 L 513.7 247.3 L 514.3 247.3 L 515.0 247.3 L 515.7 247.3 L 516.4 247.3 L 517.1 247.3 L 517.8 247.3 L 518.5 247.3 L 519.1 247.3 L 519.8 247.3 L 520.5 247.3 L 521.2 247.3 L 521.9 247.3 L 522.6 247.3 L 523.3 247.3 L 523.9 247.3 L 524.6 247.3 L 525.3 247.3 L 526.0 247.3 L 526.7 247.3 L 527.4 247.3 L 528.1 247.3 L 528.7 247.3 L 529.4 247.3 L 530.1 247.3 L 530.8 247.3 L 531.5 247.3 L 532.2 247.3 L 532.9 247.3 L 533.5 247.3 L 534.2 247.3 L 534.9 247.3 L 535.6 247.3 L 536.3 247.3 L 537.0 247.3 L 537.7 247.3 L 538.3 247.4 L 539.0 247.4 L 539.7 247.4 L 540.4 247.4 L 541.1 247.4 L 541.8 247.4 L 542.5 247.4 L 543.1 247.4 L 543.8 247.4 L 544.5 247.4 L 545.2 247.4 L 545.9 247.4 L 546.6 247.4 L 547.3 247.4 L 547.9 247.4 L 548.6 247.5 L 549.3 247.5 L 550.0 247.5" stroke="#000" stroke-width="1.2" fill="none"/>
  <g text-anchor="middle" font-size="11" fill="#000">
    <text x="193.4" y="150.1">TCE</text>
    <text x="193.4" y="162.1" font-size="9.5" fill="#666">t ≈ 1.8 min</text>
  </g>
  <g text-anchor="middle" font-size="11" fill="#000">
    <text x="419.7" y="79.9">Decane</text>
    <text x="419.7" y="91.9" font-size="9.5" fill="#666">t ≈ 5.1 min</text>
  </g>
</svg>
